<?xml version="1.0" encoding="UTF-8"?>
<svg xmlns="http://www.w3.org/2000/svg" width="140" height="18" viewBox="0 0 140 18" fill="none">
  <path d="M32.5635 2.06345L35.2226 2.05895C35.2676 2.12798 35.3 2.20257 35.3196 2.28273C35.4525 2.8401 35.344 5.37366 35.3443 6.11032C35.3457 9.16881 35.4571 12.4241 35.3357 15.4611C35.3293 15.6216 35.3067 15.7439 35.2215 15.8824L32.5174 15.8791C32.5541 15.827 32.586 15.7676 32.5993 15.7048C32.6921 15.2658 32.7106 13.338 32.5035 13.0191C32.5352 12.9706 32.561 12.9191 32.5808 12.8647C32.7301 12.4448 32.6587 8.27672 32.4925 7.91824C32.5002 7.9642 32.5042 8.01376 32.5004 8.06024C32.472 8.40907 30.1549 12.9177 29.9285 13.1091C29.3369 13.0566 28.7144 13.0972 28.1193 13.0993C28.1238 13.0774 28.1274 13.0546 28.1266 13.0322C28.1167 12.734 25.81 8.24224 25.4703 7.92765C25.4974 7.96718 25.5207 8.00826 25.5392 8.05257C25.6851 8.40116 25.6349 15.6617 25.5451 15.8805L22.7631 15.8788C22.7798 15.8551 22.7943 15.8302 22.8067 15.804C22.8928 15.6219 22.9219 2.52025 22.7784 2.09491C23.6285 1.97885 24.5888 2.05758 25.4512 2.05899C25.4885 2.08317 25.526 2.11253 25.5549 2.14653C25.8804 2.52976 28.6531 8.41617 28.9851 9.22664C29.0153 9.30015 29.0175 9.38603 29.012 9.46447C29.0383 9.44374 29.0629 9.42194 29.087 9.39861C29.3205 9.17226 32.5662 2.36881 32.5672 2.15506C32.5673 2.12422 32.5669 2.09412 32.5635 2.06345Z" fill="#1F2937"></path>
  <path d="M131.334 2.121L133.947 2.11785C133.995 2.19226 134.032 2.27527 134.05 2.36207C134.187 3.02255 134.074 5.55257 134.074 6.38673V12.407C134.074 13.4498 134.109 14.5084 134.065 15.5495C134.057 15.7033 134.033 15.8172 133.948 15.9484L131.231 15.9456C131.278 15.8739 131.316 15.7935 131.335 15.7091C131.429 15.2692 131.447 13.2085 131.235 12.8817C131.282 12.8088 131.32 12.7254 131.337 12.6395C131.434 12.1232 131.416 8.78047 131.35 8.17242C131.339 8.06388 131.291 7.95675 131.232 7.86649C131.238 7.90227 131.242 7.93766 131.241 7.97399C131.24 8.30219 128.939 12.8371 128.648 13.1296L126.828 13.1253C126.84 13.0838 126.85 13.0344 126.845 12.9911C126.81 12.6844 124.756 8.6916 124.435 8.16756C124.366 8.05519 124.27 7.95865 124.166 7.87878C124.215 7.95415 124.254 8.04046 124.274 8.12907C124.418 8.78353 124.305 10.0636 124.305 10.7776C124.307 12.369 124.408 14.038 124.288 15.6216C124.279 15.7456 124.244 15.8438 124.177 15.9484L121.481 15.9465C121.499 15.9212 121.515 15.8954 121.528 15.8679C121.633 15.6615 121.691 2.65518 121.537 2.16408C122.326 1.98898 123.367 2.11624 124.18 2.11889C124.203 2.13738 124.224 2.15686 124.243 2.17942C124.521 2.50524 127.776 9.40477 127.763 9.55402C127.761 9.58154 127.758 9.60802 127.752 9.63503C128.082 9.24763 131.349 2.3892 131.341 2.20324C131.34 2.17544 131.339 2.14852 131.334 2.121Z" fill="#6B7280"></path>
  <path d="M86.6414 2.09538C87.6925 2.0051 88.7792 2.05594 89.8344 2.05394C90.808 2.05209 91.848 1.98326 92.8134 2.10533C93.3255 2.17009 93.8289 2.29396 94.2952 2.52061C94.3546 2.54899 94.4132 2.57882 94.4711 2.61013C94.529 2.64143 94.586 2.67416 94.6423 2.70832C94.6985 2.74248 94.7539 2.77802 94.8084 2.81495C94.8629 2.85189 94.9165 2.89016 94.9691 2.92977C95.0217 2.96939 95.0733 3.01029 95.1239 3.05248C95.1744 3.09468 95.2239 3.13811 95.2723 3.18278C95.3207 3.22745 95.368 3.27331 95.4142 3.32034C95.4603 3.36738 95.5053 3.41555 95.5491 3.46484C95.5929 3.51412 95.6354 3.56447 95.6767 3.61589C95.718 3.66731 95.758 3.71972 95.7966 3.77313C95.8352 3.82655 95.8725 3.88091 95.9085 3.93619C95.9445 3.99147 95.9791 4.04762 96.0123 4.10464C96.0455 4.16166 96.0773 4.21947 96.1076 4.27808C96.138 4.33668 96.1668 4.39601 96.1942 4.45606C96.2216 4.51611 96.2475 4.57681 96.2719 4.63816C96.2963 4.6995 96.3192 4.76142 96.3405 4.82391C96.6988 5.85952 96.676 7.07641 96.1961 8.06746C95.7455 8.9978 94.9622 9.61745 94.0022 9.95083C94.0323 9.9721 94.06 9.99609 94.0854 10.0228C94.3484 10.3005 97.0607 15.6256 97.0558 15.7913C97.0549 15.8216 97.0533 15.851 97.0485 15.881L94.0075 15.8813C93.496 14.9047 91.7512 10.8709 91.2302 10.3772L89.3024 10.3797C89.3465 10.4482 89.3816 10.5242 89.3989 10.6042C89.5142 11.1384 89.4773 14.9112 89.4058 15.5841C89.3942 15.6937 89.3536 15.793 89.2953 15.8858C88.4122 15.846 87.5116 15.8816 86.6267 15.8806C86.6369 15.8653 86.6462 15.8496 86.6535 15.8328C86.7755 15.548 86.7556 3.34331 86.7054 2.33824C86.7013 2.25602 86.6724 2.17092 86.6414 2.09538ZM89.3074 8.09361C90.2726 8.10182 92.5122 8.36337 93.2016 7.683C93.239 7.64625 93.2482 7.61818 93.2659 7.57023C93.5801 7.36497 93.742 7.07855 93.8183 6.71195C93.9149 6.24833 93.852 5.70688 93.5903 5.30626C93.3052 4.86991 92.8429 4.64858 92.3473 4.54769C91.6631 4.40842 90.021 4.41863 89.3174 4.56862C89.4968 4.91577 89.5078 7.55837 89.3819 7.94643C89.3646 7.99939 89.3398 8.04844 89.3074 8.09361Z" fill="#1F2937"></path>
  <path d="M53.5736 2.09533C54.251 1.99947 54.9961 2.05849 55.6817 2.0578C55.7296 2.09792 55.7727 2.1444 55.8063 2.19724C56.1647 2.76071 56.9751 5.33228 57.2574 6.10918C58.3923 9.23163 59.6253 12.3504 60.6617 15.5056C60.7052 15.6383 60.7289 15.7384 60.6982 15.8784L57.8569 15.8803C57.8679 15.8453 57.876 15.8096 57.8812 15.7732C57.9204 15.5007 57.2881 13.7194 57.0848 13.4578L55.6958 13.4602H52.2109C52.2199 13.4946 52.2263 13.5296 52.23 13.5651C52.2602 13.8526 51.6189 15.6262 51.4038 15.8844L48.5543 15.8768C48.5659 15.8673 48.5771 15.8577 48.5879 15.8472C48.7132 15.7255 53.5617 2.58122 53.5736 2.09533ZM52.9951 11.1398L54.6704 11.1381L56.3288 11.1353C56.3912 10.8773 55.0687 6.85426 54.8614 6.50339C54.8031 6.40482 54.772 6.39608 54.6703 6.3547C54.6738 6.70142 53.2825 10.852 53.0277 11.1098C53.0173 11.1204 53.0064 11.1302 52.9951 11.1398Z" fill="#1F2937"></path>
  <path d="M111.171 2.09536C111.317 2.05786 111.46 2.04817 111.609 2.04245C112.497 2.00842 113.39 2.03982 114.278 2.04121C116.086 2.04403 118.035 1.89216 119.468 3.23188C120.217 3.93165 120.614 4.91535 120.647 5.93462C120.681 6.95289 120.331 7.95065 119.633 8.69554C118.36 10.0525 116.473 10.0413 114.758 10.0887L113.606 10.0933C113.641 10.1445 113.67 10.202 113.683 10.263C113.795 10.7814 113.758 14.8816 113.69 15.5811C113.679 15.6939 113.638 15.7926 113.577 15.8875L111.161 15.8858C111.187 15.8456 111.211 15.8007 111.224 15.7538C111.357 15.2923 111.256 12.6455 111.256 11.976C111.257 8.79748 111.349 5.5891 111.248 2.4136C111.245 2.29303 111.229 2.20361 111.171 2.09536ZM113.603 7.95987C114.514 7.96344 116.79 8.14069 117.446 7.49983C117.479 7.46701 117.51 7.43146 117.537 7.3932C117.797 7.25228 117.946 7.00055 118.03 6.72166C118.179 6.22973 118.169 5.60369 117.922 5.14462C117.689 4.71146 117.277 4.45771 116.818 4.32084C116.143 4.1195 114.274 4.05204 113.616 4.22513C113.775 4.60259 113.801 7.49524 113.659 7.85928C113.645 7.8955 113.626 7.92904 113.603 7.95987Z" fill="#6B7280"></path>
  <path d="M38.4067 2.09527C39.3298 1.95744 40.4089 2.05803 41.3471 2.05817L47.4611 2.05871C47.4953 2.11143 47.5262 2.16984 47.5461 2.22965C47.6908 2.66653 47.6695 4.11898 47.4762 4.52C46.7893 4.46806 46.0683 4.5069 45.3779 4.50633L41.0853 4.51904C41.133 4.59395 41.1703 4.67724 41.1894 4.76435C41.2802 5.1782 41.2772 7.41169 41.0918 7.698L46.5055 7.69355C46.5368 7.75072 46.5688 7.81056 46.5901 7.87223C46.7444 8.31854 46.717 9.75075 46.5202 10.1598C45.7688 10.108 41.8877 10.0608 41.3499 10.1833C41.1902 10.2196 41.1822 10.2745 41.0969 10.4075C41.1303 10.4656 41.1565 10.534 41.1766 10.5979C41.2941 10.9724 41.2757 13.1271 41.1076 13.4514L47.4601 13.4407C47.5002 13.5079 47.5376 13.5844 47.5554 13.6612C47.659 14.1085 47.7013 15.4925 47.4592 15.8825C44.4341 15.8313 41.3991 15.8797 38.373 15.8787C38.3941 15.8439 38.4124 15.8085 38.4283 15.771C38.5561 15.4713 38.55 2.44406 38.4067 2.09527Z" fill="#1F2937"></path>
  <path d="M99.2226 2.09538C100.152 1.9617 101.225 2.05816 102.167 2.05805L108.295 2.05973C108.322 2.10452 108.347 2.15319 108.365 2.20249C108.522 2.62887 108.495 4.11781 108.311 4.51856C106.186 4.47537 104.055 4.51122 101.928 4.51611C101.962 4.56499 101.99 4.62074 102.003 4.67941C102.096 5.10787 102.097 7.40688 101.907 7.69802L107.338 7.69641C107.367 7.74041 107.393 7.78852 107.411 7.83733C107.55 8.19906 107.509 9.81382 107.355 10.1567C106.648 10.1148 105.917 10.1517 105.208 10.1504C104.284 10.1487 103.349 10.1159 102.427 10.1546C102.193 10.1644 102.097 10.1645 101.937 10.3395C101.962 10.3932 101.985 10.4505 101.999 10.5082C102.092 10.8687 102.095 13.2055 101.948 13.4516C104.063 13.4195 106.182 13.4444 108.297 13.4414C108.303 13.4524 108.307 13.4634 108.313 13.4743C108.342 13.5333 108.372 13.5923 108.387 13.6569C108.494 14.0991 108.523 15.4974 108.294 15.8821C105.267 15.8121 102.221 15.8804 99.1924 15.8801C99.2197 15.837 99.2428 15.7922 99.261 15.7445C99.3963 15.3909 99.3639 3.74692 99.3063 2.4403C99.3008 2.316 99.2732 2.2092 99.2226 2.09538Z" fill="#1F2937"></path>
  <path d="M80.9572 2.06663L83.6362 2.05659C83.6775 2.13136 83.7211 2.21146 83.74 2.29545C83.8386 2.73407 83.8816 4.13017 83.6424 4.49999C83.6694 4.5497 83.6957 4.60122 83.7164 4.65391C83.8332 4.9513 83.7973 11.079 83.7307 11.734C83.7057 11.984 83.6616 12.2304 83.5983 12.4735C83.535 12.7165 83.4534 12.9531 83.3534 13.1833C82.8755 14.2763 81.9205 15.1965 80.8105 15.6293C79.4316 16.1667 77.738 16.1298 76.3855 15.5277C73.4091 14.2028 73.6058 11.4516 73.6122 8.67746L73.6188 4.18691C73.6241 3.59545 73.7558 2.65042 73.5439 2.11159L73.5374 2.09536C74.4232 2.00498 75.3573 2.05689 76.2494 2.05721C76.5423 2.48324 76.19 10.1616 76.398 11.5417C76.455 11.9202 76.5665 12.2885 76.7741 12.6121C77.0805 13.0898 77.538 13.4049 78.091 13.5218C78.7366 13.6582 79.4585 13.5569 80.0148 13.1908C80.5716 12.8243 80.9028 12.2644 81.0341 11.616C81.2066 10.7628 81.0821 8.9085 81.0829 7.96679C81.0845 6.12683 81.1937 4.22633 81.0676 2.39678C81.059 2.27073 81.0273 2.17249 80.9572 2.06663Z" fill="#1F2937"></path>
  <path d="M65.907 1.95796C66.9783 1.87282 68.1157 1.98048 69.1306 2.34678C69.6933 2.54985 70.6595 2.99714 70.9244 3.56068C70.9225 3.57018 70.9205 3.57966 70.9182 3.58906C70.8493 3.86904 69.5001 5.10119 69.1994 5.28275C69.1986 5.28032 69.198 5.27782 69.197 5.27544C69.1954 5.27152 69.1934 5.26775 69.1917 5.26389C69.1645 5.202 69.131 5.14416 69.0829 5.09612C68.4726 4.48718 67.3611 4.31812 66.5349 4.31536C65.9164 4.31329 65.2867 4.45515 64.8348 4.90999C64.5187 5.22827 64.3706 5.68631 64.372 6.13113C64.3787 8.19694 68.6283 7.1866 70.3651 8.9407C71.0911 9.674 71.3657 10.7352 71.3641 11.7464C71.3624 12.8099 71.016 13.8313 70.255 14.5908C69.0903 15.7531 67.4557 16.0141 65.8814 16.0077C64.4356 15.9342 63.2688 15.6907 62.0541 14.8721C61.7218 14.6484 61.434 14.3705 61.0919 14.1606C61.1077 14.1532 61.1233 14.1454 61.1386 14.137C61.4286 13.9803 62.7613 12.7096 62.8548 12.3938C63.1582 12.5432 63.4331 12.7883 63.7323 12.9577C64.6957 13.5032 65.8371 13.6807 66.9269 13.5213C67.4785 13.4406 68.0652 13.2716 68.4121 12.8008C68.6979 12.4128 68.7152 11.9623 68.6471 11.5006C68.4289 10.0213 66.1608 10.1724 65.0298 9.94435C64.3286 9.80295 63.6238 9.55867 63.0461 9.12475C62.3276 8.58495 61.9402 7.8339 61.8138 6.95183C61.6453 5.77591 61.8306 4.60031 62.5538 3.6332C63.3835 2.52351 64.6037 2.143 65.907 1.95796Z" fill="#1F2937"></path>
  <path d="M19.1848 6.32039C19.4194 6.22402 19.653 6.14382 19.8318 5.95584C19.8339 5.95365 19.8358 5.95128 19.8377 5.94901C19.9539 6.34669 18.9725 8.64776 18.7324 9.10219C18.6889 9.18453 18.6283 9.25787 18.5631 9.32362C18.4089 9.07257 18.0431 8.89809 17.7969 8.74222C14.4974 11.248 7.34706 14.1937 3.28709 13.6296C2.73 13.5522 1.86802 13.3539 1.51907 12.8898C1.32147 12.6269 1.18493 12.3566 1.07281 12.0481L1.09249 11.949C1.19732 12.1161 1.29045 12.2804 1.37284 12.4601C2.81622 13.4139 4.95738 13.0089 6.5417 12.6796C9.24264 12.1183 12.0253 11.1273 14.4701 9.8468C15.2266 9.45059 15.9415 8.97241 16.68 8.5436C16.7921 8.47204 16.9229 8.40795 16.9571 8.26885C16.8192 8.02778 16.5113 7.91114 16.2716 7.772C17.2174 7.25361 18.2685 6.89096 19.1848 6.32039Z" fill="#155EEF"></path>
  <path d="M19.1848 6.32039C19.2149 6.65268 18.8664 6.99672 18.6591 7.24676C18.2364 7.75683 17.6609 8.45772 17.0474 8.73794C16.8506 8.73181 16.8194 8.67179 16.68 8.5436C16.7921 8.47203 16.9229 8.40795 16.9571 8.26885C16.8192 8.02778 16.5113 7.91114 16.2716 7.772C17.2174 7.25361 18.2685 6.89096 19.1848 6.32039Z" fill="#5CA9FE"></path>
  <path d="M14.1503 0.890866C14.1576 0.890623 14.1648 0.890449 14.1721 0.890344C14.4532 0.886755 14.7701 0.923333 14.9778 1.13301C15.1357 1.29235 15.1979 1.49577 15.2285 1.7122C15.3367 2.47828 15.2616 3.33428 15.2607 4.11228L15.2535 8.8795C14.9373 9.08142 14.5794 9.24742 14.2476 9.42428L13.5232 9.7804L13.5144 4.1928C13.5124 3.35606 13.3862 2.30711 13.5666 1.50373C13.6357 1.19668 13.9055 1.04574 14.1503 0.890866Z" fill="#1F2937"></path>
  <path d="M7.72464 5.01085C7.76392 5.00874 7.80323 5.0075 7.84257 5.00714C8.10499 5.00475 8.40059 5.07457 8.59069 5.26774C8.74445 5.42398 8.78199 5.66352 8.8074 5.87257C8.89123 6.56186 8.83649 7.30897 8.83297 8.00469C8.82624 9.20773 8.82595 10.4108 8.8321 11.6138L8.04116 11.8385L7.10411 12.0785C7.08477 10.8429 6.94472 6.56009 7.15861 5.62012C7.2324 5.29586 7.4624 5.17723 7.72464 5.01085Z" fill="#1F2937"></path>
  <path d="M15.1909 10.9366C15.2064 10.9584 15.2209 10.9826 15.2317 11.007C15.3607 11.2983 15.2936 14.8345 15.1474 15.2019C15.0567 15.4293 14.9229 15.6443 14.6883 15.741C14.3919 15.8633 14.1393 15.7609 13.8652 15.6444C13.7589 15.5253 13.6362 15.3912 13.5893 15.2358C13.3679 14.5019 13.5169 12.5889 13.5215 11.7433C14.0855 11.4922 14.6369 11.2095 15.1909 10.9366Z" fill="#1F2937"></path>
  <path d="M11.936 12.4387L11.9995 12.4949C12.1068 13.1988 12.1868 14.5714 11.9115 15.2149C11.818 15.4333 11.6879 15.6247 11.4587 15.7141C11.165 15.8286 10.929 15.7318 10.6591 15.613C10.1308 15.0338 10.326 13.7763 10.3354 13.0162C10.8713 12.8316 11.4029 12.6312 11.936 12.4387Z" fill="#6B7280"></path>
  <path d="M137.571 4.28214C138.042 3.67272 138.027 2.65346 138.336 1.93225L138.489 1.90837C138.579 1.94361 138.647 1.95613 138.705 2.0386C138.907 2.32626 138.81 4.66862 138.738 5.06632L138.606 5.067C138.205 4.60257 138.536 3.3853 138.423 2.78029L138.331 2.7824C138.331 2.79573 138.33 2.80905 138.329 2.82236C138.305 3.22655 137.994 4.87262 137.739 5.10279C137.347 4.84936 137.322 2.91236 136.83 2.3546C137.057 2.90136 137.046 3.58768 137.014 4.17321C137 4.4229 136.99 4.89841 136.798 5.0721C136.736 4.98634 136.721 4.90397 136.709 4.80095C136.669 4.4241 136.599 2.14553 136.75 1.95796C136.88 1.94446 136.995 1.92989 137.122 1.96885C137.25 2.12132 137.305 2.30753 137.367 2.49355C137.499 2.90089 137.761 3.90525 137.571 4.28214Z" fill="#1F2937"></path>
  <path d="M10.8518 8.37072C10.9467 8.35811 11.044 8.35544 11.1397 8.35559C11.3823 8.35597 11.5925 8.40943 11.7685 8.59172C12.1607 8.99778 12.0367 9.90855 12.0287 10.4407L11.1702 10.7827L10.34 11.0853C10.3404 10.5165 10.2722 9.92861 10.3277 9.36296C10.3744 8.88642 10.4851 8.67286 10.8518 8.37072Z" fill="#6B7280"></path>
  <path d="M5.69314 8.08814C5.88276 8.16144 5.92292 8.18506 6.05246 8.34122C6.0757 8.52529 6.0907 8.63268 5.94462 8.77636C5.66621 9.05022 5.21115 9.2373 4.86929 9.43621C3.72427 10.1025 2.59077 10.866 1.84204 11.9843L1.77572 12.0966C1.74625 12.0851 1.69703 12.0751 1.68133 12.0481C1.57393 11.8632 1.56397 11.6923 1.61843 11.4903C1.96823 10.1929 4.57691 8.73391 5.69314 8.08814Z" fill="#1F2937"></path>
  <path d="M8.75374 13.4827L8.81735 13.5398C8.85107 14.0787 8.95023 14.7165 8.72953 15.2246C8.6324 15.4481 8.48798 15.6543 8.25299 15.7443C7.96388 15.8551 7.70436 15.7581 7.43798 15.6379C7.42517 15.6255 7.41265 15.6129 7.40045 15.6C6.97949 15.1542 7.08703 14.4518 7.10071 13.8893C7.65453 13.7684 8.20393 13.6209 8.75374 13.4827Z" fill="#1F2937"></path>
  <path d="M5.24221 14.1816C5.35548 14.1638 5.44778 14.1402 5.55114 14.2038C5.63587 14.3842 5.66315 14.5438 5.65044 14.7424C5.63121 15.0426 5.4846 15.3693 5.2577 15.569C5.00957 15.7873 4.75661 15.7708 4.44775 15.7514C4.35844 15.6839 4.26803 15.6136 4.18904 15.534C3.84158 15.1835 3.89636 14.6989 3.89778 14.2431C4.34636 14.2538 4.79506 14.213 5.24221 14.1816Z" fill="#6B7280"></path>
  <path d="M4.51883 11.0544C4.52237 11.0543 4.52591 11.0542 4.52945 11.0541C4.77296 11.0531 4.98617 11.0469 5.19276 11.1942C5.40211 11.3434 5.6068 11.6012 5.64852 11.8611C5.66964 11.9925 5.64725 12.168 5.56438 12.2765C5.44448 12.4335 5.25233 12.4164 5.07014 12.4425L3.89352 12.5475C3.89616 12.2989 3.88169 12.0189 3.92921 11.7751C3.99772 11.4236 4.2399 11.2428 4.51883 11.0544Z" fill="#6B7280"></path>
  <path d="M134.719 2.02669C135.219 1.92874 135.899 1.91105 136.4 2.00271L136.45 2.11965C136.363 2.30447 136.169 2.21546 136.002 2.30057C135.908 2.34803 135.863 2.41303 135.831 2.50939C135.642 3.06956 136.05 3.89379 135.702 4.43144C135.738 4.49471 135.781 4.56774 135.799 4.63894C135.843 4.82615 135.794 4.90724 135.702 5.05969L135.598 5.05686C135.217 4.54139 135.47 3.04769 135.436 2.39657C135.339 2.24843 135.061 2.28396 134.88 2.23848C134.807 2.22022 134.758 2.09254 134.719 2.02669Z" fill="#1F2937"></path>
</svg>
